<svg width="242" height="164" viewBox="0 0 242 164" fill="none" xmlns="http://www.w3.org/2000/svg">
<g filter="url(#filter0_f_337_231)">
<circle cx="82.1404" cy="82.1404" r="46.1403" fill="#E07A5F" fill-opacity="0.8"/>
</g>
<path d="M83.7409 120.994V121.613H68.1875V120.994L69.3482 120.84C71.2827 120.607 71.5148 120.375 71.5148 119.137V94.6076C71.5148 93.2922 71.2827 92.441 70.6637 91.7446L68.2649 89.3458V89.1136L80.8779 84.5482L81.11 84.7804C80.9552 86.2506 80.8005 87.7982 80.8005 88.7267L80.7231 91.4351L81.0326 91.5898C85.9076 87.2565 89.3897 85.1673 93.4908 85.1673C95.5027 85.1673 97.2051 85.8637 98.5205 87.1791C99.7586 88.4172 100.3 89.8874 100.532 92.0541C104.324 88.4172 108.657 85.1673 113.61 85.1673C115.544 85.1673 117.247 85.8637 118.562 87.1791C119.955 88.572 120.729 90.5065 120.729 94.8398V119.137C120.729 120.375 120.961 120.607 122.895 120.84L124.056 120.994V121.613H108.503V120.994L109.741 120.84C111.443 120.607 111.675 120.375 111.675 119.137V99.7921C111.675 96.0779 111.598 93.5243 110.205 92.1315C109.276 91.2029 108.116 90.816 106.491 90.816C104.479 90.816 102.157 91.9767 100.61 92.8279C100.687 93.8338 100.687 95.0719 100.687 96.3874V119.137C100.687 120.375 100.842 120.607 102.622 120.84L103.782 120.994V121.613H88.4611V120.994L89.6218 120.84C91.4016 120.607 91.5563 120.375 91.5563 119.137V99.7921C91.5563 96.0779 91.5563 93.5243 90.1635 92.1315C89.2349 91.2029 88.0742 90.816 86.4492 90.816C84.2826 90.816 82.5802 91.5898 80.6457 92.6731V119.137C80.6457 120.375 80.8005 120.607 82.5802 120.84L83.7409 120.994Z" fill="#264653"/>
<path d="M139.271 90.0422C137.491 90.0422 136.098 90.5839 135.325 91.0482L137.182 96.5422C136.795 97.2386 132.848 98.6314 130.836 98.6314C129.134 98.6314 128.206 98.0124 128.206 96.5422C128.206 95.6136 129.289 94.1434 130.914 92.5184C134.319 89.1136 140.741 84.8577 145.152 84.8577C148.324 84.8577 150.568 85.6315 152.039 87.0244C153.896 88.8815 154.437 91.7446 154.437 95.6136V113.411C154.437 115.423 154.824 116.584 155.598 117.357C156.217 117.976 157.068 118.286 157.997 118.286C158.693 118.286 159.622 117.976 160.473 117.357L160.783 117.667C159.622 119.524 156.295 122.697 152.503 122.697C149.485 122.697 146.467 121.072 145.693 117.357L145.461 117.28L144.146 118.441C141.128 120.917 138.961 122.387 135.402 122.387C130.836 122.387 128.051 118.673 128.051 114.959C128.051 113.256 128.592 111.863 129.753 110.703C131.223 109.31 133.854 107.917 139.89 105.75L145.539 103.739V97.316C145.539 94.3755 144.997 92.5958 143.991 91.5898C142.908 90.5065 141.283 90.0422 139.271 90.0422ZM145.539 116.506V104.667C142.676 105.828 140.199 106.756 138.652 108.227C137.723 109.233 137.182 110.471 137.182 112.096C137.182 115.578 139.426 117.59 141.979 117.59C143.527 117.59 144.455 117.203 145.539 116.506Z" fill="#264653"/>
<path d="M184.172 84.8577C186.958 84.8577 188.351 86.7922 188.351 89.191C188.351 91.4351 187.267 93.7565 185.41 95.3041C181.541 93.2148 179.839 92.6731 178.446 92.6731C176.743 92.6731 175.66 93.7565 174.499 95.2267V119.137C174.499 120.375 174.732 120.607 176.666 120.84L179.142 120.994V121.613H162.041V120.994L163.202 120.84C165.136 120.607 165.369 120.375 165.369 119.137V94.6076C165.369 93.2922 165.136 92.3636 164.517 91.7446L162.119 89.3458V89.1136L174.732 84.5482L174.964 84.7804C174.809 86.328 174.732 87.4887 174.654 88.6494L174.345 93.6017L174.732 93.7565C177.44 88.0303 180.69 84.8577 184.172 84.8577Z" fill="#264653"/>
<path d="M192.936 73.8697C192.936 71.0067 195.412 68.4531 198.739 68.4531C201.68 68.4531 203.847 70.8519 203.847 73.6376C203.847 76.5781 201.525 78.8995 198.275 78.8995C195.335 78.8995 192.936 76.7328 192.936 73.8697ZM202.686 89.6553V119.137C202.686 120.375 202.841 120.607 204.775 120.84L206.013 120.994V121.613H190.228V120.994L191.388 120.84C193.323 120.607 193.555 120.375 193.555 119.137V94.6076C193.555 93.2148 193.323 92.3636 192.704 91.6672L190.305 89.2684V89.1136L202.686 84.6256L202.918 84.8577C202.763 86.328 202.686 88.4172 202.686 89.6553Z" fill="#264653"/>
<path d="M222.034 88.572C220.255 90.3517 218.862 93.3696 218.398 97.2386L222.654 97.1612C228.999 97.0064 231.862 96.7743 232.636 96.3874C232.945 91.4351 230.624 86.4827 226.677 86.4827C225.207 86.4827 223.582 87.1018 222.034 88.572ZM241.612 111.631C238.749 118.596 232.868 122.774 226.058 122.774C215.535 122.774 209.422 114.417 209.422 104.899C209.422 94.066 216.618 85.1673 227.142 85.1673C235.576 85.1673 241.07 90.4291 241.07 96.2326C241.07 97.1612 240.915 97.935 240.761 98.3993L218.243 98.3219C218.165 99.0957 218.165 99.9469 218.165 100.798C218.165 111.322 223.659 116.042 230.546 116.042C235.112 116.042 238.749 114.185 241.302 111.399L241.612 111.631Z" fill="#264653"/>
<defs>
<filter id="filter0_f_337_231" x="0.912281" y="0.912281" width="162.456" height="162.457" filterUnits="userSpaceOnUse" color-interpolation-filters="sRGB">
<feFlood flood-opacity="0" result="BackgroundImageFix"/>
<feBlend mode="normal" in="SourceGraphic" in2="BackgroundImageFix" result="shape"/>
<feGaussianBlur stdDeviation="17.5439" result="effect1_foregroundBlur_337_231"/>
</filter>
</defs>
</svg>
